STARTFONT 2.1
FONT -chris2-Fixed-Medium-R-Condensed--13-120-75-75-C-50-ISO10646-1
SIZE 12 75 75
FONTBOUNDINGBOX 5 13 0 -2
STARTPROPERTIES 21
POINT_SIZE 120
PIXEL_SIZE 13
RESOLUTION_X 75
RESOLUTION_Y 75
FONT_ASCENT 11
FONT_DESCENT 2
AVERAGE_WIDTH 50
SPACING "C"
_GBDFED_INFO "Edited with gbdfed 1.6."
FAMILY_NAME "Fixed"
ADD_STYLE_NAME ""
CAP_HEIGHT 9
CHARSET_ENCODING "1"
CHARSET_REGISTRY "ISO10646"
DEFAULT_CHAR 0
FONTNAME_REGISTRY ""
FOUNDRY "chris2"
SETWIDTH_NAME "Condensed"
SLANT "R"
WEIGHT_NAME "Medium"
X_HEIGHT 6
ENDPROPERTIES
CHARS 218
STARTCHAR char0
ENCODING 0
SWIDTH 400 0
DWIDTH 5 0
BBX 5 13 0 -2
BITMAP
00
00
A8
00
88
00
88
00
88
00
A8
00
00
ENDCHAR
STARTCHAR space
ENCODING 32
SWIDTH 400 0
DWIDTH 5 0
BBX 5 13 0 -2
BITMAP
00
00
00
00
00
00
00
00
00
00
00
00
00
ENDCHAR
STARTCHAR exclam
ENCODING 33
SWIDTH 400 0
DWIDTH 5 0
BBX 5 13 0 -2
BITMAP
00
00
20
20
20
20
20
20
20
00
20
00
00
ENDCHAR
STARTCHAR quotedbl
ENCODING 34
SWIDTH 400 0
DWIDTH 5 0
BBX 5 13 0 -2
BITMAP
00
00
50
50
50
00
00
00
00
00
00
00
00
ENDCHAR
STARTCHAR numbersign
ENCODING 35
SWIDTH 400 0
DWIDTH 5 0
BBX 5 13 0 -2
BITMAP
00
00
00
28
28
78
50
50
F0
A0
A0
00
00
ENDCHAR
STARTCHAR dollar
ENCODING 36
SWIDTH 400 0
DWIDTH 5 0
BBX 5 13 0 -2
BITMAP
00
20
70
80
80
80
60
10
10
10
E0
40
00
ENDCHAR
STARTCHAR percent
ENCODING 37
SWIDTH 400 0
DWIDTH 5 0
BBX 5 13 0 -2
BITMAP
00
00
00
D0
D0
20
20
40
40
B0
B0
00
00
ENDCHAR
STARTCHAR ampersand
ENCODING 38
SWIDTH 400 0
DWIDTH 5 0
BBX 5 13 0 -2
BITMAP
00
00
00
40
A0
A0
40
A0
A0
A0
50
00
00
ENDCHAR
STARTCHAR quotesingle
ENCODING 39
SWIDTH 400 0
DWIDTH 5 0
BBX 5 13 0 -2
BITMAP
00
00
40
40
40
00
00
00
00
00
00
00
00
ENDCHAR
STARTCHAR char40
ENCODING 40
SWIDTH 400 0
DWIDTH 5 0
BBX 5 13 0 -2
BITMAP
00
20
40
40
40
40
40
40
40
40
40
20
00
ENDCHAR
STARTCHAR parenright
ENCODING 41
SWIDTH 400 0
DWIDTH 5 0
BBX 5 13 0 -2
BITMAP
00
40
20
20
20
20
20
20
20
20
20
40
00
ENDCHAR
STARTCHAR asterisk
ENCODING 42
SWIDTH 400 0
DWIDTH 5 0
BBX 5 13 0 -2
BITMAP
00
00
20
A8
70
A8
20
00
00
00
00
00
00
ENDCHAR
STARTCHAR plus
ENCODING 43
SWIDTH 400 0
DWIDTH 5 0
BBX 5 13 0 -2
BITMAP
00
00
00
00
20
20
F8
20
20
00
00
00
00
ENDCHAR
STARTCHAR comma
ENCODING 44
SWIDTH 400 0
DWIDTH 5 0
BBX 5 13 0 -2
BITMAP
00
00
00
00
00
00
00
00
00
20
20
40
00
ENDCHAR
STARTCHAR hyphen
ENCODING 45
SWIDTH 400 0
DWIDTH 5 0
BBX 5 13 0 -2
BITMAP
00
00
00
00
00
00
F0
00
00
00
00
00
00
ENDCHAR
STARTCHAR period
ENCODING 46
SWIDTH 400 0
DWIDTH 5 0
BBX 5 13 0 -2
BITMAP
00
00
00
00
00
00
00
00
00
60
60
00
00
ENDCHAR
STARTCHAR slash
ENCODING 47
SWIDTH 400 0
DWIDTH 5 0
BBX 5 13 0 -2
BITMAP
00
00
00
10
10
20
20
40
40
80
80
00
00
ENDCHAR
STARTCHAR zero
ENCODING 48
SWIDTH 400 0
DWIDTH 5 0
BBX 5 13 0 -2
BITMAP
00
00
60
90
90
B0
D0
90
90
90
60
00
00
ENDCHAR
STARTCHAR one
ENCODING 49
SWIDTH 400 0
DWIDTH 5 0
BBX 5 13 0 -2
BITMAP
00
00
20
60
A0
20
20
20
20
20
20
00
00
ENDCHAR
STARTCHAR two
ENCODING 50
SWIDTH 400 0
DWIDTH 5 0
BBX 5 13 0 -2
BITMAP
00
00
60
90
90
10
10
20
40
80
F0
00
00
ENDCHAR
STARTCHAR three
ENCODING 51
SWIDTH 400 0
DWIDTH 5 0
BBX 5 13 0 -2
BITMAP
00
00
60
90
10
10
60
10
10
90
60
00
00
ENDCHAR
STARTCHAR four
ENCODING 52
SWIDTH 400 0
DWIDTH 5 0
BBX 5 13 0 -2
BITMAP
00
00
90
90
90
90
70
10
10
10
10
00
00
ENDCHAR
STARTCHAR five
ENCODING 53
SWIDTH 400 0
DWIDTH 5 0
BBX 5 13 0 -2
BITMAP
00
00
F0
80
80
E0
90
10
10
90
60
00
00
ENDCHAR
STARTCHAR six
ENCODING 54
SWIDTH 400 0
DWIDTH 5 0
BBX 5 13 0 -2
BITMAP
00
00
60
90
80
80
E0
90
90
90
60
00
00
ENDCHAR
STARTCHAR seven
ENCODING 55
SWIDTH 400 0
DWIDTH 5 0
BBX 5 13 0 -2
BITMAP
00
00
F0
10
10
20
20
40
40
80
80
00
00
ENDCHAR
STARTCHAR eight
ENCODING 56
SWIDTH 400 0
DWIDTH 5 0
BBX 5 13 0 -2
BITMAP
00
00
60
90
90
90
60
90
90
90
60
00
00
ENDCHAR
STARTCHAR nine
ENCODING 57
SWIDTH 400 0
DWIDTH 5 0
BBX 5 13 0 -2
BITMAP
00
00
60
90
90
90
70
10
10
90
60
00
00
ENDCHAR
STARTCHAR colon
ENCODING 58
SWIDTH 400 0
DWIDTH 5 0
BBX 5 13 0 -2
BITMAP
00
00
00
00
00
60
60
00
00
60
60
00
00
ENDCHAR
STARTCHAR semicolon
ENCODING 59
SWIDTH 400 0
DWIDTH 5 0
BBX 5 13 0 -2
BITMAP
00
00
00
00
00
60
60
00
00
20
20
40
00
ENDCHAR
STARTCHAR less
ENCODING 60
SWIDTH 400 0
DWIDTH 5 0
BBX 5 13 0 -2
BITMAP
00
00
00
00
10
20
40
80
40
20
10
00
00
ENDCHAR
STARTCHAR equal
ENCODING 61
SWIDTH 400 0
DWIDTH 5 0
BBX 5 13 0 -2
BITMAP
00
00
00
00
00
F0
00
00
F0
00
00
00
00
ENDCHAR
STARTCHAR greater
ENCODING 62
SWIDTH 400 0
DWIDTH 5 0
BBX 5 13 0 -2
BITMAP
00
00
00
00
80
40
20
10
20
40
80
00
00
ENDCHAR
STARTCHAR question
ENCODING 63
SWIDTH 400 0
DWIDTH 5 0
BBX 5 13 0 -2
BITMAP
00
00
60
90
90
10
20
40
40
00
40
00
00
ENDCHAR
STARTCHAR at
ENCODING 64
SWIDTH 400 0
DWIDTH 5 0
BBX 5 13 0 -2
BITMAP
00
00
60
90
90
B0
B0
B0
B0
80
70
00
00
ENDCHAR
STARTCHAR A
ENCODING 65
SWIDTH 400 0
DWIDTH 5 0
BBX 5 13 0 -2
BITMAP
00
00
60
90
90
90
90
F0
90
90
90
00
00
ENDCHAR
STARTCHAR B
ENCODING 66
SWIDTH 400 0
DWIDTH 5 0
BBX 5 13 0 -2
BITMAP
00
00
E0
90
90
90
E0
90
90
90
E0
00
00
ENDCHAR
STARTCHAR C
ENCODING 67
SWIDTH 400 0
DWIDTH 5 0
BBX 5 13 0 -2
BITMAP
00
00
70
80
80
80
80
80
80
80
70
00
00
ENDCHAR
STARTCHAR D
ENCODING 68
SWIDTH 400 0
DWIDTH 5 0
BBX 5 13 0 -2
BITMAP
00
00
E0
90
90
90
90
90
90
90
E0
00
00
ENDCHAR
STARTCHAR E
ENCODING 69
SWIDTH 400 0
DWIDTH 5 0
BBX 5 13 0 -2
BITMAP
00
00
F0
80
80
80
F0
80
80
80
F0
00
00
ENDCHAR
STARTCHAR F
ENCODING 70
SWIDTH 400 0
DWIDTH 5 0
BBX 5 13 0 -2
BITMAP
00
00
F0
80
80
80
F0
80
80
80
80
00
00
ENDCHAR
STARTCHAR G
ENCODING 71
SWIDTH 400 0
DWIDTH 5 0
BBX 5 13 0 -2
BITMAP
00
00
60
90
80
80
80
B0
90
90
60
00
00
ENDCHAR
STARTCHAR H
ENCODING 72
SWIDTH 400 0
DWIDTH 5 0
BBX 5 13 0 -2
BITMAP
00
00
90
90
90
90
F0
90
90
90
90
00
00
ENDCHAR
STARTCHAR I
ENCODING 73
SWIDTH 400 0
DWIDTH 5 0
BBX 5 13 0 -2
BITMAP
00
00
70
20
20
20
20
20
20
20
70
00
00
ENDCHAR
STARTCHAR J
ENCODING 74
SWIDTH 400 0
DWIDTH 5 0
BBX 5 13 0 -2
BITMAP
00
00
10
10
10
10
10
10
10
90
60
00
00
ENDCHAR
STARTCHAR K
ENCODING 75
SWIDTH 400 0
DWIDTH 5 0
BBX 5 13 0 -2
BITMAP
00
00
90
90
90
A0
C0
A0
90
90
90
00
00
ENDCHAR
STARTCHAR L
ENCODING 76
SWIDTH 400 0
DWIDTH 5 0
BBX 5 13 0 -2
BITMAP
00
00
80
80
80
80
80
80
80
80
F0
00
00
ENDCHAR
STARTCHAR M
ENCODING 77
SWIDTH 400 0
DWIDTH 5 0
BBX 5 13 0 -2
BITMAP
00
00
90
90
F0
B0
90
90
90
90
90
00
00
ENDCHAR
STARTCHAR N
ENCODING 78
SWIDTH 400 0
DWIDTH 5 0
BBX 5 13 0 -2
BITMAP
00
00
90
90
D0
D0
B0
B0
90
90
90
00
00
ENDCHAR
STARTCHAR O
ENCODING 79
SWIDTH 400 0
DWIDTH 5 0
BBX 5 13 0 -2
BITMAP
00
00
60
90
90
90
90
90
90
90
60
00
00
ENDCHAR
STARTCHAR P
ENCODING 80
SWIDTH 400 0
DWIDTH 5 0
BBX 5 13 0 -2
BITMAP
00
00
E0
90
90
90
E0
80
80
80
80
00
00
ENDCHAR
STARTCHAR Q
ENCODING 81
SWIDTH 400 0
DWIDTH 5 0
BBX 5 13 0 -2
BITMAP
00
00
60
90
90
90
90
90
90
B0
70
10
00
ENDCHAR
STARTCHAR R
ENCODING 82
SWIDTH 400 0
DWIDTH 5 0
BBX 5 13 0 -2
BITMAP
00
00
E0
90
90
90
E0
A0
90
90
90
00
00
ENDCHAR
STARTCHAR S
ENCODING 83
SWIDTH 400 0
DWIDTH 5 0
BBX 5 13 0 -2
BITMAP
00
00
60
90
80
80
60
10
10
90
60
00
00
ENDCHAR
STARTCHAR T
ENCODING 84
SWIDTH 400 0
DWIDTH 5 0
BBX 5 13 0 -2
BITMAP
00
00
F8
20
20
20
20
20
20
20
20
00
00
ENDCHAR
STARTCHAR U
ENCODING 85
SWIDTH 400 0
DWIDTH 5 0
BBX 5 13 0 -2
BITMAP
00
00
90
90
90
90
90
90
90
90
60
00
00
ENDCHAR
STARTCHAR V
ENCODING 86
SWIDTH 400 0
DWIDTH 5 0
BBX 5 13 0 -2
BITMAP
00
00
90
90
90
90
90
90
60
60
60
00
00
ENDCHAR
STARTCHAR W
ENCODING 87
SWIDTH 400 0
DWIDTH 5 0
BBX 5 13 0 -2
BITMAP
00
00
90
90
90
90
90
90
B0
F0
90
00
00
ENDCHAR
STARTCHAR X
ENCODING 88
SWIDTH 400 0
DWIDTH 5 0
BBX 5 13 0 -2
BITMAP
00
00
90
90
90
60
60
60
90
90
90
00
00
ENDCHAR
STARTCHAR Y
ENCODING 89
SWIDTH 400 0
DWIDTH 5 0
BBX 5 13 0 -2
BITMAP
00
00
88
88
50
50
20
20
20
20
20
00
00
ENDCHAR
STARTCHAR Z
ENCODING 90
SWIDTH 400 0
DWIDTH 5 0
BBX 5 13 0 -2
BITMAP
00
00
F0
10
10
20
40
40
80
80
F0
00
00
ENDCHAR
STARTCHAR bracketleft
ENCODING 91
SWIDTH 400 0
DWIDTH 5 0
BBX 5 13 0 -2
BITMAP
00
70
40
40
40
40
40
40
40
40
40
70
00
ENDCHAR
STARTCHAR backslash
ENCODING 92
SWIDTH 400 0
DWIDTH 5 0
BBX 5 13 0 -2
BITMAP
00
00
00
80
80
40
40
20
20
10
10
00
00
ENDCHAR
STARTCHAR bracketright
ENCODING 93
SWIDTH 400 0
DWIDTH 5 0
BBX 5 13 0 -2
BITMAP
00
E0
20
20
20
20
20
20
20
20
20
E0
00
ENDCHAR
STARTCHAR asciicircum
ENCODING 94
SWIDTH 400 0
DWIDTH 5 0
BBX 5 13 0 -2
BITMAP
00
00
60
90
00
00
00
00
00
00
00
00
00
ENDCHAR
STARTCHAR underscore
ENCODING 95
SWIDTH 400 0
DWIDTH 5 0
BBX 5 13 0 -2
BITMAP
00
00
00
00
00
00
00
00
00
00
00
F0
00
ENDCHAR
STARTCHAR grave
ENCODING 96
SWIDTH 400 0
DWIDTH 5 0
BBX 5 13 0 -2
BITMAP
00
40
20
00
00
00
00
00
00
00
00
00
00
ENDCHAR
STARTCHAR a
ENCODING 97
SWIDTH 400 0
DWIDTH 5 0
BBX 5 13 0 -2
BITMAP
00
00
00
00
00
60
90
70
90
B0
50
00
00
ENDCHAR
STARTCHAR b
ENCODING 98
SWIDTH 400 0
DWIDTH 5 0
BBX 5 13 0 -2
BITMAP
00
00
80
80
80
A0
D0
90
90
90
60
00
00
ENDCHAR
STARTCHAR c
ENCODING 99
SWIDTH 400 0
DWIDTH 5 0
BBX 5 13 0 -2
BITMAP
00
00
00
00
00
60
90
80
80
90
60
00
00
ENDCHAR
STARTCHAR d
ENCODING 100
SWIDTH 400 0
DWIDTH 5 0
BBX 5 13 0 -2
BITMAP
00
00
10
10
10
70
90
90
90
90
70
00
00
ENDCHAR
STARTCHAR e
ENCODING 101
SWIDTH 400 0
DWIDTH 5 0
BBX 5 13 0 -2
BITMAP
00
00
00
00
00
60
90
F0
80
90
60
00
00
ENDCHAR
STARTCHAR f
ENCODING 102
SWIDTH 400 0
DWIDTH 5 0
BBX 5 13 0 -2
BITMAP
00
00
30
40
40
40
F0
40
40
40
40
00
00
ENDCHAR
STARTCHAR g
ENCODING 103
SWIDTH 400 0
DWIDTH 5 0
BBX 5 13 0 -2
BITMAP
00
00
00
00
00
60
90
90
90
70
10
90
60
ENDCHAR
STARTCHAR h
ENCODING 104
SWIDTH 400 0
DWIDTH 5 0
BBX 5 13 0 -2
BITMAP
00
00
80
80
80
A0
D0
90
90
90
90
00
00
ENDCHAR
STARTCHAR i
ENCODING 105
SWIDTH 400 0
DWIDTH 5 0
BBX 5 13 0 -2
BITMAP
00
00
00
20
00
60
20
20
20
20
70
00
00
ENDCHAR
STARTCHAR j
ENCODING 106
SWIDTH 400 0
DWIDTH 5 0
BBX 5 13 0 -2
BITMAP
00
00
00
20
00
20
20
20
20
20
A0
A0
40
ENDCHAR
STARTCHAR k
ENCODING 107
SWIDTH 400 0
DWIDTH 5 0
BBX 5 13 0 -2
BITMAP
00
00
80
80
80
90
A0
C0
A0
90
90
00
00
ENDCHAR
STARTCHAR l
ENCODING 108
SWIDTH 400 0
DWIDTH 5 0
BBX 5 13 0 -2
BITMAP
00
00
60
20
20
20
20
20
20
20
70
00
00
ENDCHAR
STARTCHAR m
ENCODING 109
SWIDTH 400 0
DWIDTH 5 0
BBX 5 13 0 -2
BITMAP
00
00
00
00
00
90
F0
B0
90
90
90
00
00
ENDCHAR
STARTCHAR n
ENCODING 110
SWIDTH 400 0
DWIDTH 5 0
BBX 5 13 0 -2
BITMAP
00
00
00
00
00
A0
D0
90
90
90
90
00
00
ENDCHAR
STARTCHAR o
ENCODING 111
SWIDTH 400 0
DWIDTH 5 0
BBX 5 13 0 -2
BITMAP
00
00
00
00
00
60
90
90
90
90
60
00
00
ENDCHAR
STARTCHAR p
ENCODING 112
SWIDTH 400 0
DWIDTH 5 0
BBX 5 13 0 -2
BITMAP
00
00
00
00
00
E0
90
90
90
E0
80
80
80
ENDCHAR
STARTCHAR q
ENCODING 113
SWIDTH 400 0
DWIDTH 5 0
BBX 5 13 0 -2
BITMAP
00
00
00
00
00
70
90
90
90
70
10
10
10
ENDCHAR
STARTCHAR r
ENCODING 114
SWIDTH 400 0
DWIDTH 5 0
BBX 5 13 0 -2
BITMAP
00
00
00
00
00
B0
C0
80
80
80
80
00
00
ENDCHAR
STARTCHAR s
ENCODING 115
SWIDTH 400 0
DWIDTH 5 0
BBX 5 13 0 -2
BITMAP
00
00
00
00
00
60
90
C0
30
90
60
00
00
ENDCHAR
STARTCHAR t
ENCODING 116
SWIDTH 400 0
DWIDTH 5 0
BBX 5 13 0 -2
BITMAP
00
00
00
40
40
F0
40
40
40
40
30
00
00
ENDCHAR
STARTCHAR u
ENCODING 117
SWIDTH 400 0
DWIDTH 5 0
BBX 5 13 0 -2
BITMAP
00
00
00
00
00
90
90
90
90
90
70
00
00
ENDCHAR
STARTCHAR v
ENCODING 118
SWIDTH 400 0
DWIDTH 5 0
BBX 5 13 0 -2
BITMAP
00
00
00
00
00
90
90
90
90
60
60
00
00
ENDCHAR
STARTCHAR w
ENCODING 119
SWIDTH 400 0
DWIDTH 5 0
BBX 5 13 0 -2
BITMAP
00
00
00
00
00
90
90
90
B0
F0
90
00
00
ENDCHAR
STARTCHAR x
ENCODING 120
SWIDTH 400 0
DWIDTH 5 0
BBX 5 13 0 -2
BITMAP
00
00
00
00
00
90
90
60
60
90
90
00
00
ENDCHAR
STARTCHAR y
ENCODING 121
SWIDTH 400 0
DWIDTH 5 0
BBX 5 13 0 -2
BITMAP
00
00
00
00
00
90
90
90
90
90
70
10
60
ENDCHAR
STARTCHAR z
ENCODING 122
SWIDTH 400 0
DWIDTH 5 0
BBX 5 13 0 -2
BITMAP
00
00
00
00
00
F0
10
20
40
80
F0
00
00
ENDCHAR
STARTCHAR braceleft
ENCODING 123
SWIDTH 400 0
DWIDTH 5 0
BBX 5 13 0 -2
BITMAP
00
10
20
20
20
20
C0
20
20
20
20
10
00
ENDCHAR
STARTCHAR bar
ENCODING 124
SWIDTH 400 0
DWIDTH 5 0
BBX 5 13 0 -2
BITMAP
00
00
40
40
40
40
40
40
40
40
40
00
00
ENDCHAR
STARTCHAR braceright
ENCODING 125
SWIDTH 400 0
DWIDTH 5 0
BBX 5 13 0 -2
BITMAP
00
80
40
40
40
40
30
40
40
40
40
80
00
ENDCHAR
STARTCHAR asciitilde
ENCODING 126
SWIDTH 400 0
DWIDTH 5 0
BBX 5 13 0 -2
BITMAP
00
00
48
A8
90
00
00
00
00
00
00
00
00
ENDCHAR
STARTCHAR char163
ENCODING 163
SWIDTH 400 0
DWIDTH 5 0
BBX 5 13 0 -2
BITMAP
00
00
30
40
40
40
E0
40
40
40
F0
00
00
ENDCHAR
STARTCHAR Y
ENCODING 165
SWIDTH 400 0
DWIDTH 5 0
BBX 5 13 0 -2
BITMAP
00
00
88
88
50
50
F8
20
F8
20
20
00
00
ENDCHAR
STARTCHAR copyright
ENCODING 169
SWIDTH 400 0
DWIDTH 5 0
BBX 5 13 0 -2
BITMAP
00
70
88
A8
D8
C8
D8
A8
88
70
00
00
00
ENDCHAR
STARTCHAR char171
ENCODING 171
SWIDTH 400 0
DWIDTH 5 0
BBX 5 13 0 -2
BITMAP
00
00
00
00
00
00
50
A0
50
00
00
00
00
ENDCHAR
STARTCHAR char176
ENCODING 176
SWIDTH 400 0
DWIDTH 5 0
BBX 5 13 0 -2
BITMAP
00
00
60
90
90
60
00
00
00
00
00
00
00
ENDCHAR
STARTCHAR T
ENCODING 178
SWIDTH 400 0
DWIDTH 5 0
BBX 5 13 0 -2
BITMAP
00
00
60
10
20
70
00
00
00
00
00
00
00
ENDCHAR
STARTCHAR char179
ENCODING 179
SWIDTH 400 0
DWIDTH 5 0
BBX 5 13 0 -2
BITMAP
00
00
70
20
10
60
00
00
00
00
00
00
00
ENDCHAR
STARTCHAR u
ENCODING 181
SWIDTH 400 0
DWIDTH 5 0
BBX 5 13 0 -2
BITMAP
00
00
00
00
00
90
90
90
90
B0
D0
80
80
ENDCHAR
STARTCHAR T
ENCODING 185
SWIDTH 400 0
DWIDTH 5 0
BBX 5 13 0 -2
BITMAP
00
00
20
60
20
20
00
00
00
00
00
00
00
ENDCHAR
STARTCHAR char187
ENCODING 187
SWIDTH 400 0
DWIDTH 5 0
BBX 5 13 0 -2
BITMAP
00
00
00
00
00
00
A0
50
A0
00
00
00
00
ENDCHAR
STARTCHAR A
ENCODING 193
SWIDTH 400 0
DWIDTH 5 0
BBX 5 13 0 -2
BITMAP
10
20
00
60
90
90
90
F0
90
90
90
00
00
ENDCHAR
STARTCHAR Adieresis
ENCODING 196
SWIDTH 400 0
DWIDTH 5 0
BBX 5 13 0 -2
BITMAP
00
90
90
00
60
90
90
90
F0
90
90
00
00
ENDCHAR
STARTCHAR E
ENCODING 200
SWIDTH 400 0
DWIDTH 5 0
BBX 5 13 0 -2
BITMAP
80
40
00
F0
80
80
F0
80
80
80
F0
00
00
ENDCHAR
STARTCHAR E
ENCODING 201
SWIDTH 400 0
DWIDTH 5 0
BBX 5 13 0 -2
BITMAP
10
20
00
F0
80
80
F0
80
80
80
F0
00
00
ENDCHAR
STARTCHAR N
ENCODING 209
SWIDTH 400 0
DWIDTH 5 0
BBX 5 13 0 -2
BITMAP
50
A0
00
90
90
D0
D0
B0
B0
90
90
00
00
ENDCHAR
STARTCHAR Odieresis
ENCODING 214
SWIDTH 400 0
DWIDTH 5 0
BBX 5 13 0 -2
BITMAP
00
90
90
00
60
90
90
90
90
90
60
00
00
ENDCHAR
STARTCHAR x
ENCODING 215
SWIDTH 400 0
DWIDTH 5 0
BBX 5 13 0 -2
BITMAP
00
00
00
00
00
90
60
60
90
00
00
00
00
ENDCHAR
STARTCHAR Udieresis
ENCODING 220
SWIDTH 400 0
DWIDTH 5 0
BBX 5 13 0 -2
BITMAP
00
90
90
00
90
90
90
90
90
90
60
00
00
ENDCHAR
STARTCHAR germandbls
ENCODING 223
SWIDTH 400 0
DWIDTH 5 0
BBX 5 13 0 -2
BITMAP
00
00
60
90
90
A0
A0
90
88
88
B0
00
00
ENDCHAR
STARTCHAR a
ENCODING 225
SWIDTH 400 0
DWIDTH 5 0
BBX 5 13 0 -2
BITMAP
00
00
10
20
00
60
90
70
90
B0
50
00
00
ENDCHAR
STARTCHAR adierisis
ENCODING 228
SWIDTH 400 0
DWIDTH 5 0
BBX 5 13 0 -2
BITMAP
00
00
90
90
00
60
90
70
90
B0
50
00
00
ENDCHAR
STARTCHAR e
ENCODING 232
SWIDTH 400 0
DWIDTH 5 0
BBX 5 13 0 -2
BITMAP
00
00
80
40
00
60
90
F0
80
90
60
00
00
ENDCHAR
STARTCHAR e
ENCODING 233
SWIDTH 400 0
DWIDTH 5 0
BBX 5 13 0 -2
BITMAP
00
00
10
20
00
60
90
F0
80
90
60
00
00
ENDCHAR
STARTCHAR i
ENCODING 239
SWIDTH 400 0
DWIDTH 5 0
BBX 5 13 0 -2
BITMAP
00
00
00
50
00
60
20
20
20
20
70
00
00
ENDCHAR
STARTCHAR n
ENCODING 241
SWIDTH 400 0
DWIDTH 5 0
BBX 5 13 0 -2
BITMAP
00
00
50
A0
00
A0
D0
90
90
90
90
00
00
ENDCHAR
STARTCHAR o
ENCODING 242
SWIDTH 400 0
DWIDTH 5 0
BBX 5 13 0 -2
BITMAP
00
00
80
40
00
60
90
90
90
90
60
00
00
ENDCHAR
STARTCHAR o
ENCODING 243
SWIDTH 400 0
DWIDTH 5 0
BBX 5 13 0 -2
BITMAP
00
00
10
20
00
60
90
90
90
90
60
00
00
ENDCHAR
STARTCHAR odieresis
ENCODING 246
SWIDTH 400 0
DWIDTH 5 0
BBX 5 13 0 -2
BITMAP
00
00
90
90
00
60
90
90
90
90
60
00
00
ENDCHAR
STARTCHAR udieresis
ENCODING 252
SWIDTH 400 0
DWIDTH 5 0
BBX 5 13 0 -2
BITMAP
00
00
90
90
00
90
90
90
90
90
70
00
00
ENDCHAR
STARTCHAR a
ENCODING 257
SWIDTH 400 0
DWIDTH 5 0
BBX 5 13 0 -2
BITMAP
00
00
00
F0
00
60
90
70
90
B0
50
00
00
ENDCHAR
STARTCHAR e
ENCODING 275
SWIDTH 400 0
DWIDTH 5 0
BBX 5 13 0 -2
BITMAP
00
00
00
F0
00
60
90
F0
80
90
60
00
00
ENDCHAR
STARTCHAR i
ENCODING 299
SWIDTH 400 0
DWIDTH 5 0
BBX 5 13 0 -2
BITMAP
00
00
00
70
00
60
20
20
20
20
70
00
00
ENDCHAR
STARTCHAR o
ENCODING 333
SWIDTH 400 0
DWIDTH 5 0
BBX 5 13 0 -2
BITMAP
00
00
00
F0
00
60
90
90
90
90
60
00
00
ENDCHAR
STARTCHAR u
ENCODING 363
SWIDTH 400 0
DWIDTH 5 0
BBX 5 13 0 -2
BITMAP
00
00
00
F0
00
90
90
90
90
90
70
00
00
ENDCHAR
STARTCHAR char383
ENCODING 383
SWIDTH 400 0
DWIDTH 5 0
BBX 5 13 0 -2
BITMAP
00
00
30
40
40
40
C0
40
40
40
40
00
00
ENDCHAR
STARTCHAR char916
ENCODING 916
SWIDTH 400 0
DWIDTH 5 0
BBX 5 13 0 -2
BITMAP
00
00
00
00
00
00
60
60
90
90
F0
00
00
ENDCHAR
STARTCHAR char937
ENCODING 937
SWIDTH 400 0
DWIDTH 5 0
BBX 5 13 0 -2
BITMAP
00
00
00
70
88
88
88
88
88
50
D8
00
00
ENDCHAR
STARTCHAR char945
ENCODING 945
SWIDTH 400 0
DWIDTH 5 0
BBX 5 13 0 -2
BITMAP
00
00
00
00
00
50
A0
A0
A0
A0
50
00
00
ENDCHAR
STARTCHAR char946
ENCODING 946
SWIDTH 400 0
DWIDTH 5 0
BBX 5 13 0 -2
BITMAP
00
00
60
90
90
E0
90
90
90
D0
A0
80
00
ENDCHAR
STARTCHAR char947
ENCODING 947
SWIDTH 400 0
DWIDTH 5 0
BBX 5 13 0 -2
BITMAP
00
00
00
00
00
90
90
90
90
60
60
40
40
ENDCHAR
STARTCHAR char955
ENCODING 955
SWIDTH 400 0
DWIDTH 5 0
BBX 5 13 0 -2
BITMAP
00
00
00
80
80
40
40
60
A0
90
90
00
00
ENDCHAR
STARTCHAR char960
ENCODING 960
SWIDTH 400 0
DWIDTH 5 0
BBX 5 13 0 -2
BITMAP
00
00
00
00
00
00
F0
50
50
50
50
00
00
ENDCHAR
STARTCHAR char969
ENCODING 969
SWIDTH 400 0
DWIDTH 5 0
BBX 5 13 0 -2
BITMAP
00
00
00
00
00
00
50
88
A8
A8
50
00
00
ENDCHAR
STARTCHAR U1e9e
ENCODING 7838
SWIDTH 400 0
DWIDTH 5 0
BBX 5 13 0 -2
BITMAP
00
00
78
88
90
A0
A0
90
88
88
B0
00
00
ENDCHAR
STARTCHAR quotesingle
ENCODING 8216
SWIDTH 400 0
DWIDTH 5 0
BBX 5 13 0 -2
BITMAP
00
00
20
40
40
00
00
00
00
00
00
00
00
ENDCHAR
STARTCHAR quotesingle
ENCODING 8217
SWIDTH 400 0
DWIDTH 5 0
BBX 5 13 0 -2
BITMAP
00
00
20
20
40
00
00
00
00
00
00
00
00
ENDCHAR
STARTCHAR quotedbl
ENCODING 8220
SWIDTH 400 0
DWIDTH 5 0
BBX 5 13 0 -2
BITMAP
00
00
50
A0
A0
00
00
00
00
00
00
00
00
ENDCHAR
STARTCHAR quotedbl
ENCODING 8221
SWIDTH 400 0
DWIDTH 5 0
BBX 5 13 0 -2
BITMAP
00
00
50
50
A0
00
00
00
00
00
00
00
00
ENDCHAR
STARTCHAR char8230
ENCODING 8230
SWIDTH 400 0
DWIDTH 5 0
BBX 5 13 0 -2
BITMAP
00
00
00
00
00
00
00
00
00
00
A0
00
00
ENDCHAR
STARTCHAR quotesingle
ENCODING 8242
SWIDTH 400 0
DWIDTH 5 0
BBX 5 13 0 -2
BITMAP
00
00
20
60
40
00
00
00
00
00
00
00
00
ENDCHAR
STARTCHAR char8304
ENCODING 8304
SWIDTH 400 0
DWIDTH 5 0
BBX 5 13 0 -2
BITMAP
00
00
20
50
50
20
00
00
00
00
00
00
00
ENDCHAR
STARTCHAR char8308
ENCODING 8308
SWIDTH 400 0
DWIDTH 5 0
BBX 5 13 0 -2
BITMAP
00
00
50
50
30
10
00
00
00
00
00
00
00
ENDCHAR
STARTCHAR char8309
ENCODING 8309
SWIDTH 400 0
DWIDTH 5 0
BBX 5 13 0 -2
BITMAP
00
00
70
60
10
60
00
00
00
00
00
00
00
ENDCHAR
STARTCHAR char8310
ENCODING 8310
SWIDTH 400 0
DWIDTH 5 0
BBX 5 13 0 -2
BITMAP
00
00
30
60
50
20
00
00
00
00
00
00
00
ENDCHAR
STARTCHAR char8311
ENCODING 8311
SWIDTH 400 0
DWIDTH 5 0
BBX 5 13 0 -2
BITMAP
00
00
70
10
20
20
00
00
00
00
00
00
00
ENDCHAR
STARTCHAR char8312
ENCODING 8312
SWIDTH 400 0
DWIDTH 5 0
BBX 5 13 0 -2
BITMAP
00
00
70
70
50
70
00
00
00
00
00
00
00
ENDCHAR
STARTCHAR char8313
ENCODING 8313
SWIDTH 400 0
DWIDTH 5 0
BBX 5 13 0 -2
BITMAP
00
00
20
50
30
20
00
00
00
00
00
00
00
ENDCHAR
STARTCHAR char8592
ENCODING 8592
SWIDTH 400 0
DWIDTH 5 0
BBX 5 13 0 -2
BITMAP
00
00
00
00
20
40
F8
40
20
00
00
00
00
ENDCHAR
STARTCHAR char8593
ENCODING 8593
SWIDTH 400 0
DWIDTH 5 0
BBX 5 13 0 -2
BITMAP
00
00
20
70
A8
20
20
20
20
20
20
00
00
ENDCHAR
STARTCHAR char8594
ENCODING 8594
SWIDTH 400 0
DWIDTH 5 0
BBX 5 13 0 -2
BITMAP
00
00
00
00
20
10
F8
10
20
00
00
00
00
ENDCHAR
STARTCHAR char8595
ENCODING 8595
SWIDTH 400 0
DWIDTH 5 0
BBX 5 13 0 -2
BITMAP
00
00
20
20
20
20
20
20
A8
70
20
00
00
ENDCHAR
STARTCHAR char8658
ENCODING 8656
SWIDTH 400 0
DWIDTH 5 0
BBX 5 13 0 -2
BITMAP
00
00
00
00
00
20
78
80
78
20
00
00
00
ENDCHAR
STARTCHAR char8657
ENCODING 8657
SWIDTH 400 0
DWIDTH 5 0
BBX 5 13 0 -2
BITMAP
00
00
20
50
D8
50
50
50
50
50
50
00
00
ENDCHAR
STARTCHAR char8658
ENCODING 8658
SWIDTH 400 0
DWIDTH 5 0
BBX 5 13 0 -2
BITMAP
00
00
00
00
00
20
F0
08
F0
20
00
00
00
ENDCHAR
STARTCHAR char8659
ENCODING 8659
SWIDTH 400 0
DWIDTH 5 0
BBX 5 13 0 -2
BITMAP
00
00
50
50
50
50
50
50
D8
50
20
00
00
ENDCHAR
STARTCHAR char8900
ENCODING 8900
SWIDTH 400 0
DWIDTH 5 0
BBX 5 13 0 -2
BITMAP
00
00
00
00
00
20
50
20
00
00
00
00
00
ENDCHAR
STARTCHAR char9474
ENCODING 9472
SWIDTH 400 0
DWIDTH 5 0
BBX 5 13 0 -2
BITMAP
00
00
00
00
00
00
F8
00
00
00
00
00
00
ENDCHAR
STARTCHAR char9474
ENCODING 9474
SWIDTH 400 0
DWIDTH 5 0
BBX 5 13 0 -2
BITMAP
20
20
20
20
20
20
20
20
20
20
20
20
20
ENDCHAR
STARTCHAR char9484
ENCODING 9484
SWIDTH 400 0
DWIDTH 5 0
BBX 5 13 0 -2
BITMAP
00
00
00
00
00
00
38
20
20
20
20
20
20
ENDCHAR
STARTCHAR char9488
ENCODING 9488
SWIDTH 400 0
DWIDTH 5 0
BBX 5 13 0 -2
BITMAP
00
00
00
00
00
00
E0
20
20
20
20
20
20
ENDCHAR
STARTCHAR char9474
ENCODING 9492
SWIDTH 400 0
DWIDTH 5 0
BBX 5 13 0 -2
BITMAP
20
20
20
20
20
20
38
00
00
00
00
00
00
ENDCHAR
STARTCHAR char9496
ENCODING 9496
SWIDTH 400 0
DWIDTH 5 0
BBX 5 13 0 -2
BITMAP
20
20
20
20
20
20
E0
00
00
00
00
00
00
ENDCHAR
STARTCHAR char9474
ENCODING 9500
SWIDTH 400 0
DWIDTH 5 0
BBX 5 13 0 -2
BITMAP
20
20
20
20
20
20
38
20
20
20
20
20
20
ENDCHAR
STARTCHAR char9508
ENCODING 9508
SWIDTH 400 0
DWIDTH 5 0
BBX 5 13 0 -2
BITMAP
20
20
20
20
20
20
E0
20
20
20
20
20
20
ENDCHAR
STARTCHAR char9474
ENCODING 9516
SWIDTH 400 0
DWIDTH 5 0
BBX 5 13 0 -2
BITMAP
00
00
00
00
00
00
F8
20
20
20
20
20
20
ENDCHAR
STARTCHAR char9553
ENCODING 9553
SWIDTH 400 0
DWIDTH 5 0
BBX 5 13 0 -2
BITMAP
50
50
50
50
50
50
50
50
50
50
50
50
50
ENDCHAR
STARTCHAR char9608
ENCODING 9608
SWIDTH 400 0
DWIDTH 5 0
BBX 5 13 0 -2
BITMAP
F0
F0
F0
F0
F0
F0
F0
F0
F0
F0
F0
F0
F0
ENDCHAR
STARTCHAR char9612
ENCODING 9612
SWIDTH 400 0
DWIDTH 5 0
BBX 5 13 0 -2
BITMAP
C0
C0
C0
C0
C0
C0
C0
C0
C0
C0
C0
C0
C0
ENDCHAR
STARTCHAR char9618
ENCODING 9618
SWIDTH 400 0
DWIDTH 5 0
BBX 5 13 0 -2
BITMAP
F8
F8
F8
F8
F8
F8
F8
F8
F8
F8
F8
F8
F8
ENDCHAR
STARTCHAR char9675
ENCODING 9675
SWIDTH 400 0
DWIDTH 5 0
BBX 5 13 0 -2
BITMAP
00
00
00
00
00
60
90
90
60
00
00
00
00
ENDCHAR
STARTCHAR char9679
ENCODING 9679
SWIDTH 400 0
DWIDTH 5 0
BBX 5 13 0 -2
BITMAP
00
00
00
00
00
60
F0
F0
60
00
00
00
00
ENDCHAR
STARTCHAR char9679
ENCODING 9680
SWIDTH 400 0
DWIDTH 5 0
BBX 5 13 0 -2
BITMAP
00
00
00
00
00
60
D0
D0
60
00
00
00
00
ENDCHAR
STARTCHAR char9679
ENCODING 9681
SWIDTH 400 0
DWIDTH 5 0
BBX 5 13 0 -2
BITMAP
00
00
00
00
00
60
B0
B0
60
00
00
00
00
ENDCHAR
STARTCHAR char9679
ENCODING 9682
SWIDTH 400 0
DWIDTH 5 0
BBX 5 13 0 -2
BITMAP
00
00
00
00
00
60
90
F0
60
00
00
00
00
ENDCHAR
STARTCHAR char9679
ENCODING 9683
SWIDTH 400 0
DWIDTH 5 0
BBX 5 13 0 -2
BITMAP
00
00
00
00
00
60
F0
90
60
00
00
00
00
ENDCHAR
STARTCHAR char9679
ENCODING 9684
SWIDTH 400 0
DWIDTH 5 0
BBX 5 13 0 -2
BITMAP
00
00
00
00
00
60
B0
90
60
00
00
00
00
ENDCHAR
STARTCHAR char9679
ENCODING 9685
SWIDTH 400 0
DWIDTH 5 0
BBX 5 13 0 -2
BITMAP
00
00
00
00
00
60
B0
F0
60
00
00
00
00
ENDCHAR
STARTCHAR char9679
ENCODING 9686
SWIDTH 400 0
DWIDTH 5 0
BBX 5 13 0 -2
BITMAP
00
00
00
00
00
40
C0
C0
40
00
00
00
00
ENDCHAR
STARTCHAR char9679
ENCODING 9687
SWIDTH 400 0
DWIDTH 5 0
BBX 5 13 0 -2
BITMAP
00
00
00
00
00
20
30
30
20
00
00
00
00
ENDCHAR
STARTCHAR char9733
ENCODING 9733
SWIDTH 400 0
DWIDTH 5 0
BBX 5 13 0 -2
BITMAP
00
00
00
20
20
F8
70
50
00
00
00
00
00
ENDCHAR
STARTCHAR char9734
ENCODING 9734
SWIDTH 400 0
DWIDTH 5 0
BBX 5 13 0 -2
BITMAP
00
00
00
20
20
D8
70
50
00
00
00
00
00
ENDCHAR
STARTCHAR char9786
ENCODING 9785
SWIDTH 400 0
DWIDTH 5 0
BBX 5 13 0 -2
BITMAP
00
00
00
00
50
50
00
70
88
00
00
00
00
ENDCHAR
STARTCHAR char9786
ENCODING 9786
SWIDTH 400 0
DWIDTH 5 0
BBX 5 13 0 -2
BITMAP
00
00
00
00
50
50
00
88
70
00
00
00
00
ENDCHAR
STARTCHAR char10551
ENCODING 10548
SWIDTH 400 0
DWIDTH 5 0
BBX 5 13 0 -2
BITMAP
00
00
00
10
38
54
10
10
E0
00
00
00
00
ENDCHAR
STARTCHAR char10551
ENCODING 10549
SWIDTH 400 0
DWIDTH 5 0
BBX 5 13 0 -2
BITMAP
00
00
00
00
E0
10
10
54
38
10
00
00
00
ENDCHAR
STARTCHAR char10551
ENCODING 10550
SWIDTH 400 0
DWIDTH 5 0
BBX 5 13 0 -2
BITMAP
00
00
00
08
28
48
F0
40
20
00
00
00
00
ENDCHAR
STARTCHAR char10551
ENCODING 10551
SWIDTH 400 0
DWIDTH 5 0
BBX 5 13 0 -2
BITMAP
00
00
00
80
A0
90
78
10
20
00
00
00
00
ENDCHAR
STARTCHAR char11025
ENCODING 11025
SWIDTH 400 0
DWIDTH 5 0
BBX 5 13 0 -2
BITMAP
00
00
40
E0
40
40
40
38
00
00
00
00
00
ENDCHAR
STARTCHAR char256
ENCODING 57344
SWIDTH 400 0
DWIDTH 5 0
BBX 5 13 0 -2
BITMAP
00
00
00
00
00
00
00
00
00
80
00
00
00
ENDCHAR
STARTCHAR char256
ENCODING 57345
SWIDTH 400 0
DWIDTH 5 0
BBX 5 13 0 -2
BITMAP
00
00
00
00
00
00
00
C0
20
A0
00
00
00
ENDCHAR
STARTCHAR char256
ENCODING 57346
SWIDTH 400 0
DWIDTH 5 0
BBX 5 13 0 -2
BITMAP
00
00
00
00
00
E0
10
C8
28
A8
00
00
00
ENDCHAR
STARTCHAR char259
ENCODING 57347
SWIDTH 400 0
DWIDTH 5 0
BBX 5 13 0 -2
BITMAP
00
00
70
F8
88
88
88
88
88
88
F8
00
00
ENDCHAR
STARTCHAR char259
ENCODING 57348
SWIDTH 400 0
DWIDTH 5 0
BBX 5 13 0 -2
BITMAP
00
00
70
F8
88
88
88
88
88
F8
F8
00
00
ENDCHAR
STARTCHAR char259
ENCODING 57349
SWIDTH 400 0
DWIDTH 5 0
BBX 5 13 0 -2
BITMAP
00
00
70
F8
88
88
88
88
F8
F8
F8
00
00
ENDCHAR
STARTCHAR char259
ENCODING 57350
SWIDTH 400 0
DWIDTH 5 0
BBX 5 13 0 -2
BITMAP
00
00
70
F8
88
88
88
F8
F8
F8
F8
00
00
ENDCHAR
STARTCHAR char259
ENCODING 57351
SWIDTH 400 0
DWIDTH 5 0
BBX 5 13 0 -2
BITMAP
00
00
70
F8
88
88
F8
F8
F8
F8
F8
00
00
ENDCHAR
STARTCHAR char259
ENCODING 57352
SWIDTH 400 0
DWIDTH 5 0
BBX 5 13 0 -2
BITMAP
00
00
70
F8
88
F8
F8
F8
F8
F8
F8
00
00
ENDCHAR
STARTCHAR char259
ENCODING 57353
SWIDTH 400 0
DWIDTH 5 0
BBX 5 13 0 -2
BITMAP
00
00
70
F8
F8
F8
F8
F8
F8
F8
F8
00
00
ENDCHAR
STARTCHAR char266
ENCODING 57354
SWIDTH 400 0
DWIDTH 5 0
BBX 5 13 0 -2
BITMAP
00
00
00
50
50
F8
F8
F8
70
20
20
00
00
ENDCHAR
STARTCHAR char267
ENCODING 57355
SWIDTH 400 0
DWIDTH 5 0
BBX 5 13 0 -2
BITMAP
00
00
10
30
60
60
F8
F8
30
30
60
40
00
ENDCHAR
STARTCHAR char268
ENCODING 57356
SWIDTH 400 0
DWIDTH 5 0
BBX 5 13 0 -2
BITMAP
00
00
00
00
00
40
A8
A8
10
00
00
00
00
ENDCHAR
STARTCHAR char269
ENCODING 57357
SWIDTH 400 0
DWIDTH 5 0
BBX 5 13 0 -2
BITMAP
00
00
00
00
F8
D8
A8
88
F8
00
00
00
00
ENDCHAR
STARTCHAR char270
ENCODING 57358
SWIDTH 400 0
DWIDTH 5 0
BBX 5 13 0 -2
BITMAP
00
00
00
00
20
50
50
88
F8
20
00
00
00
ENDCHAR
STARTCHAR char271
ENCODING 57359
SWIDTH 400 0
DWIDTH 5 0
BBX 5 13 0 -2
BITMAP
00
00
88
50
20
50
88
00
F8
70
70
00
00
ENDCHAR
STARTCHAR char271
ENCODING 57360
SWIDTH 400 0
DWIDTH 5 0
BBX 5 13 0 -2
BITMAP
00
00
00
00
00
00
00
00
F8
70
70
00
00
ENDCHAR
STARTCHAR char271
ENCODING 57361
SWIDTH 400 0
DWIDTH 5 0
BBX 5 13 0 -2
BITMAP
00
00
00
00
00
20
50
00
F8
70
70
00
00
ENDCHAR
STARTCHAR char271
ENCODING 57362
SWIDTH 400 0
DWIDTH 5 0
BBX 5 13 0 -2
BITMAP
00
00
00
70
88
20
50
00
F8
70
70
00
00
ENDCHAR
STARTCHAR char275
ENCODING 57363
SWIDTH 400 0
DWIDTH 5 0
BBX 5 13 0 -2
BITMAP
00
00
00
00
00
00
00
00
00
80
80
00
00
ENDCHAR
STARTCHAR char275
ENCODING 57364
SWIDTH 400 0
DWIDTH 5 0
BBX 5 13 0 -2
BITMAP
00
00
00
00
00
00
00
20
20
A0
A0
00
00
ENDCHAR
STARTCHAR char275
ENCODING 57365
SWIDTH 400 0
DWIDTH 5 0
BBX 5 13 0 -2
BITMAP
00
00
00
00
00
08
08
28
28
A8
A8
00
00
ENDCHAR
STARTCHAR char278
ENCODING 57366
SWIDTH 400 0
DWIDTH 5 0
BBX 5 13 0 -2
BITMAP
00
00
00
00
00
00
00
00
00
00
F8
00
00
ENDCHAR
STARTCHAR char278
ENCODING 57367
SWIDTH 400 0
DWIDTH 5 0
BBX 5 13 0 -2
BITMAP
00
00
00
00
00
00
20
A8
50
00
F8
00
00
ENDCHAR
ENDFONT
